<svg width="113" height="113" viewBox="0 0 113 113" fill="none" xmlns="http://www.w3.org/2000/svg">
<path d="M92.1166 22.1087C92.1265 21.6741 92.108 21.2407 92.0599 20.8084C91.3599 3.45895 75.9617 0 57.1138 0C38.267 0 22.8677 3.45895 22.1676 20.8084C22.1207 21.2407 22.101 21.6741 22.1109 22.1087H92.1166Z" fill="#FFDF8E"/>
<path d="M4.14496 45.4456C2.53451 45.4456 1.22852 44.3458 1.22852 42.9897V40.5327C1.22852 36.4633 5.14649 33.163 9.9792 33.163H21.6477C23.2595 33.163 24.5655 34.2638 24.5655 35.6199C24.5655 36.976 23.2595 38.0769 21.6477 38.0769H9.9792C8.36874 38.0769 7.06275 39.1766 7.06275 40.5327V42.9897C7.06275 43.6408 6.75561 44.266 6.20811 44.7259C5.66061 45.1869 4.91948 45.4456 4.14496 45.4456Z" fill="#A5A5A4"/>
<path d="M108.855 45.4456C107.244 45.4456 105.938 44.3458 105.938 42.9897V40.5327C105.938 39.1766 104.632 38.0769 103.02 38.0769H91.352C89.7415 38.0769 88.4355 36.976 88.4355 35.6199C88.4355 34.2638 89.7415 33.163 91.352 33.163H103.02C107.855 33.163 111.772 36.4633 111.772 40.5327V42.9897C111.772 43.6408 111.465 44.266 110.918 44.7259C110.37 45.1869 109.629 45.4456 108.855 45.4456Z" fill="#A5A5A4"/>
<path d="M92.1192 67.5542V93.1431C92.1106 95.966 89.7045 98.2525 86.7339 98.2607H27.4938C24.5231 98.2525 22.1183 95.966 22.1084 93.1431V67.5542H92.1192Z" fill="#FFB800"/>
<path d="M22.1084 19.6521H92.1192V30.7064H22.1084V19.6521Z" fill="#FFB800"/>
<path d="M22.1084 30.7064H92.1192V67.5542H22.1084V30.7064Z" fill="#393939"/>
<path d="M40.5323 98.2607V108.087C40.5323 110.8 38.1129 113 35.1282 113H32.4256C29.4409 113 27.0215 110.8 27.0215 108.087V98.2607H40.5323Z" fill="#2C2F38"/>
<path d="M85.9777 98.2607V108.087C85.9777 110.8 83.5582 113 80.5736 113H77.8721C74.8874 113 72.4668 110.8 72.4668 108.087V98.2607H85.9777Z" fill="#2C2F38"/>
<path d="M2.45708 44.2173H7.37012C8.7263 44.2173 9.82608 45.3858 9.82608 46.8267V62.4871C9.82608 63.9292 8.7263 65.0977 7.37012 65.0977H2.45708C1.09978 65.0977 0 63.9292 0 62.4871V46.8267C0 45.3858 1.09978 44.2173 2.45708 44.2173Z" fill="#FFB800"/>
<path d="M105.631 44.2173H110.544C111.9 44.2173 113 45.3858 113 46.8267V62.4871C113 63.9292 111.9 65.0977 110.544 65.0977H105.631C104.274 65.0977 103.174 63.9292 103.174 62.4871V46.8267C103.174 45.3858 104.274 44.2173 105.631 44.2173Z" fill="#FFB800"/>
</svg>
