<svg width="24" height="39" viewBox="0 0 24 39" fill="none" xmlns="http://www.w3.org/2000/svg">
<path d="M23.9991 7.57895C24.0025 7.42997 23.9962 7.28139 23.9797 7.13322C23.7397 1.18574 18.4612 0 12 0C5.53924 0 0.260276 1.18574 0.0202849 7.13322C0.0042291 7.28139 -0.00253116 7.42997 0.000848997 7.57895H23.9991Z" fill="#FFDF8E"/>
<path d="M14.6318 4.21061H8.94759C8.42414 4.21061 8 3.73935 8 3.15822C8 2.57661 8.42414 2.10535 8.94759 2.10535H14.6318C15.1548 2.10535 15.5789 2.57661 15.5789 3.15822C15.5789 3.73935 15.1548 4.21061 14.6318 4.21061Z" fill="#FFB800"/>
<path d="M24 23.1578V31.9298C23.997 32.8975 23.1722 33.6813 22.1539 33.6842H1.84612C0.827776 33.6813 0.0033804 32.8975 0 31.9298V23.1578H24Z" fill="#FFB800"/>
<path d="M0 6.73694H24V10.5264H0V6.73694Z" fill="#FFB800"/>
<path d="M0 10.5262H24V23.1578H0V10.5262Z" fill="#393939"/>
<path d="M6.31615 33.6842V37.0526C6.31615 37.9828 5.48676 38.7368 4.4636 38.7368H3.53712C2.51395 38.7368 1.68457 37.9828 1.68457 37.0526V33.6842H6.31615Z" fill="#2C2F38"/>
<path d="M21.8943 33.6842V37.0526C21.8943 37.9828 21.0649 38.7368 20.0417 38.7368H19.1157C18.0925 38.7368 17.2627 37.9828 17.2627 37.0526V33.6842H21.8943Z" fill="#2C2F38"/>
<path d="M8.76067 29.8948H4.71294C4.20301 29.8948 3.78906 29.5649 3.78906 29.1577V27.6841C3.78906 27.2773 4.20301 26.9474 4.71294 26.9474H7.83679C8.18647 26.9474 8.50613 27.1052 8.66258 27.3549L9.58646 28.8285C9.72937 29.0569 9.71415 29.3277 9.54587 29.545C9.37758 29.7622 9.08033 29.8944 8.76067 29.8948Z" fill="white"/>
<path d="M15.2386 29.8948H19.2866C19.7966 29.8948 20.2102 29.5649 20.2102 29.1577V27.6841C20.2102 27.2773 19.7966 26.9474 19.2866 26.9474H16.1621C15.8124 26.9474 15.4928 27.1052 15.3363 27.3549L14.4128 28.8285C14.2699 29.0569 14.2851 29.3277 14.4534 29.545C14.6212 29.7622 14.9185 29.8944 15.2386 29.8948Z" fill="white"/>
</svg>
