<svg width="25" height="25" viewBox="0 0 25 25" fill="none" xmlns="http://www.w3.org/2000/svg">
<path fill-rule="evenodd" clip-rule="evenodd" d="M24.9218 11.1123C24.8822 10.7609 24.4725 10.4968 24.1182 10.4968C22.9726 10.4968 21.9561 9.82415 21.5298 8.7839C21.0943 7.71844 21.3751 6.47588 22.2288 5.69274C22.4976 5.44707 22.5302 5.03583 22.3048 4.75016C21.7185 4.00563 21.0521 3.33309 20.3245 2.75022C20.0396 2.52158 19.6216 2.55339 19.3745 2.82697C18.6294 3.65215 17.291 3.95884 16.2568 3.52732C15.1806 3.07459 14.5019 1.98401 14.5683 0.813352C14.5902 0.445643 14.3214 0.125931 13.9549 0.083235C13.0211 -0.0247617 12.0792 -0.0281104 11.1427 0.0757934C10.7802 0.115792 10.5115 0.427969 10.5237 0.791027C10.5644 1.95015 9.87758 3.02166 8.81203 3.45811C7.7902 3.87549 6.46122 3.57141 5.71761 2.75357C5.47185 2.48419 5.06061 2.45107 4.77429 2.67423C4.02511 3.26202 3.34373 3.93512 2.75203 4.67351C2.52125 4.96058 2.5552 5.37666 2.82663 5.62362C3.69665 6.41151 3.97757 7.66486 3.52559 8.7426C3.09406 9.7701 2.02712 10.4323 0.805669 10.4323C0.409309 10.4196 0.126992 10.6856 0.0836449 11.046C-0.0263053 11.9851 -0.0276076 12.942 0.0782497 13.8888C0.117504 14.2417 0.539724 14.5034 0.897946 14.5034C1.98647 14.4756 3.03155 15.1496 3.46996 16.2164C3.90697 17.2819 3.62605 18.5237 2.771 19.3075C2.50357 19.5532 2.46962 19.9637 2.69501 20.2494C3.27583 20.9892 3.94232 21.6624 4.67253 22.2501C4.95894 22.4809 5.37567 22.4483 5.62394 22.1747C6.37183 21.3475 7.71011 21.0414 8.74022 21.4737C9.81916 21.9251 10.4978 23.0156 10.4314 24.1869C10.4097 24.5548 10.6798 24.875 11.0449 24.9171C11.5226 24.9728 12.0031 25.0006 12.4849 25.0006C12.9423 25.0006 13.3998 24.9755 13.8572 24.9246C14.2197 24.8846 14.4882 24.5724 14.476 24.2087C14.4341 23.0503 15.1222 21.9788 16.1863 21.543C17.215 21.1229 18.5384 21.4304 19.2821 22.2474C19.5293 22.5162 19.9376 22.5487 20.2255 22.3263C20.9733 21.7399 21.6533 21.0673 22.2478 20.3269C22.4785 20.0405 22.4459 19.6238 22.1731 19.3769C21.3031 18.589 21.0208 17.3355 21.4728 16.2585C21.8977 15.2446 22.925 14.5639 24.03 14.5639L24.1846 14.5679C24.543 14.597 24.8728 14.3209 24.9162 13.9551C25.0263 13.0151 25.0276 12.0591 24.9218 11.1123ZM12.5198 16.6963C10.2205 16.6963 8.35028 14.826 8.35028 12.5268C8.35028 10.2276 10.2205 8.35722 12.5198 8.35722C14.819 8.35722 16.6893 10.2276 16.6893 12.5268C16.6893 14.826 14.819 16.6963 12.5198 16.6963Z" fill="#808082"/>
</svg>
