<svg width="25" height="25" viewBox="0 0 25 25" fill="none" xmlns="http://www.w3.org/2000/svg">
<path d="M24.7808 9.46572L22.5019 7.1868C22.2308 6.91568 21.7989 6.89322 21.5011 7.13462C20.4715 7.96942 18.9872 7.89088 18.0481 6.95195C17.1092 6.01303 17.0308 4.52861 17.8655 3.49902C18.1069 3.20123 18.0844 2.76924 17.8134 2.49818L15.5344 0.219261C15.2421 -0.0730571 14.768 -0.0731171 14.4757 0.219261L0.219284 14.4756C-0.0730946 14.7679 -0.0730946 15.242 0.219284 15.5343L2.4982 17.8132L2.49892 17.814C2.79124 18.1063 3.26533 18.1063 3.55765 17.814C3.58485 17.7867 3.60959 17.7578 3.63181 17.7277C3.68291 17.6664 3.73653 17.6075 3.79172 17.5523C4.79976 16.5443 6.43976 16.5443 7.44774 17.5522C8.45566 18.5601 8.45566 20.2003 7.44768 21.2082C7.38427 21.2717 7.31593 21.333 7.24466 21.3908C7.07988 21.5246 6.9796 21.7217 6.96849 21.9334C6.95744 22.1452 7.03683 22.3517 7.18683 22.5017L9.46563 24.7806C9.75801 25.073 10.2321 25.073 10.5244 24.7806L24.7806 10.5244C25.0732 10.2321 25.0731 9.7581 24.7808 9.46572ZM20.0634 12.2115C19.7586 12.5164 19.2642 12.5164 18.9594 12.2115L12.7886 6.04077C12.4837 5.7359 12.4837 5.24164 12.7886 4.93677C13.0934 4.6319 13.5878 4.6319 13.8926 4.93677L20.0636 11.1077C20.3683 11.4126 20.3683 11.9068 20.0634 12.2115Z" fill="#808082"/>
</svg>
