<svg width="23" height="25" viewBox="0 0 23 25" fill="none" xmlns="http://www.w3.org/2000/svg">
<path d="M21.8341 6.11301C21.6289 4.1174 21.302 2.56361 20.7849 1.95288C18.6528 -0.558266 3.71728 -0.742036 2.02152 1.95288C1.60671 2.61313 1.31579 4.16142 1.12055 6.11631C0.490586 6.19004 0 6.71769 0 7.36363V9.8082C0 10.3518 0.346231 10.8101 0.829626 10.989C0.715138 14.8393 0.808056 18.8564 0.979512 20.8542C0.979512 22.3964 2.02097 22.1406 2.02097 22.1406H2.99716V23.8055C2.99716 24.4657 3.68133 25 4.52423 25C5.36823 25 6.0524 24.4657 6.0524 23.8055V22.1406H17.4094V23.8055C17.4094 24.4657 18.093 25 18.937 25C19.7799 25 20.4641 24.4657 20.4641 23.8055V22.1406H20.7849C20.7849 22.1406 22.0105 22.3078 22.0891 21.5816C22.0891 19.5893 22.2152 15.1738 22.1112 11.006C22.625 10.8459 23 10.3749 23 9.8082V7.36363C23.0006 6.70228 22.4862 6.16583 21.8341 6.11301ZM5.66911 2.31107H17.1373V4.03707H5.66911V2.31107ZM5.83282 20.1747C4.9324 20.1747 4.20289 19.4484 4.20289 18.5527C4.20289 17.6575 4.9324 16.9317 5.83282 16.9317C6.73324 16.9317 7.46332 17.6575 7.46332 18.5527C7.46332 19.4484 6.7338 20.1747 5.83282 20.1747ZM17.0759 20.1747C16.176 20.1747 15.4449 19.4484 15.4449 18.5527C15.4449 17.6575 16.1755 16.9317 17.0759 16.9317C17.9763 16.9317 18.7059 17.6575 18.7059 18.5527C18.7064 19.4484 17.9763 20.1747 17.0759 20.1747ZM19.1483 13.077H3.6581V4.99443H19.1483V13.077Z" fill="#50B600"/>
</svg>
