<svg width="165" height="165" viewBox="0 0 165 165" fill="none" xmlns="http://www.w3.org/2000/svg">
<path d="M113.438 7.73438H105.703V18.0469C105.703 19.4144 105.16 20.7259 104.193 21.6929C103.226 22.6599 101.914 23.2031 100.547 23.2031H64.4531C63.0856 23.2031 61.7741 22.6599 60.8071 21.6929C59.8401 20.7259 59.2969 19.4144 59.2969 18.0469V7.73438H51.5625C48.8275 7.73438 46.2044 8.82087 44.2705 10.7548C42.3365 12.6888 41.25 15.3118 41.25 18.0469V146.953C41.25 149.688 42.3365 152.311 44.2705 154.245C46.2044 156.179 48.8275 157.266 51.5625 157.266H113.438C116.173 157.266 118.796 156.179 120.73 154.245C122.664 152.311 123.75 149.688 123.75 146.953V18.0469C123.75 15.3118 122.664 12.6888 120.73 10.7548C118.796 8.82087 116.173 7.73438 113.438 7.73438ZM110.859 100.547C110.859 106.017 108.686 111.263 104.818 115.131C100.951 118.999 95.7045 121.172 90.2344 121.172H74.7656C69.2955 121.172 64.0495 118.999 60.1815 115.131C56.3136 111.263 54.1406 106.017 54.1406 100.547V64.4531C54.1406 58.983 56.3136 53.737 60.1815 49.869C64.0495 46.0011 69.2955 43.8281 74.7656 43.8281H90.2344C95.7045 43.8281 100.951 46.0011 104.818 49.869C108.686 53.737 110.859 58.983 110.859 64.4531V100.547Z" fill="#FFDF8E"/>
<path d="M113.438 5.15625H51.5625C48.1449 5.16034 44.8685 6.51977 42.452 8.93635C40.0354 11.3529 38.676 14.6293 38.6719 18.0469V146.953C38.676 150.371 40.0354 153.647 42.452 156.064C44.8685 158.48 48.1449 159.84 51.5625 159.844H113.438C116.855 159.84 120.131 158.48 122.548 156.064C124.965 153.647 126.324 150.371 126.328 146.953V18.0469C126.324 14.6293 124.965 11.3529 122.548 8.93635C120.131 6.51977 116.855 5.16034 113.438 5.15625ZM61.875 10.3125H103.125V18.0469C103.125 18.7306 102.853 19.3864 102.37 19.8699C101.886 20.3534 101.231 20.625 100.547 20.625H64.4531C63.7694 20.625 63.1136 20.3534 62.6301 19.8699C62.1466 19.3864 61.875 18.7306 61.875 18.0469V10.3125ZM121.172 146.953C121.172 149.004 120.357 150.972 118.907 152.422C117.456 153.873 115.489 154.688 113.438 154.688H51.5625C49.5112 154.688 47.5439 153.873 46.0935 152.422C44.643 150.972 43.8281 149.004 43.8281 146.953V18.0469C43.8281 15.9956 44.643 14.0283 46.0935 12.5778C47.5439 11.1274 49.5112 10.3125 51.5625 10.3125H56.7188V18.0469C56.7188 20.0982 57.5336 22.0654 58.9841 23.5159C60.4346 24.9664 62.4018 25.7812 64.4531 25.7812H100.547C102.598 25.7812 104.565 24.9664 106.016 23.5159C107.466 22.0654 108.281 20.0982 108.281 18.0469V10.3125H113.438C115.489 10.3125 117.456 11.1274 118.907 12.5778C120.357 14.0283 121.172 15.9956 121.172 18.0469V146.953Z" fill="#FFB800"/>
<path d="M105.703 149.531H59.2969C58.6131 149.531 57.9574 149.26 57.4739 148.776C56.9904 148.293 56.7188 147.637 56.7188 146.953C56.7188 146.269 56.9904 145.614 57.4739 145.13C57.9574 144.647 58.6131 144.375 59.2969 144.375H105.703C106.387 144.375 107.043 144.647 107.526 145.13C108.01 145.614 108.281 146.269 108.281 146.953C108.281 147.637 108.01 148.293 107.526 148.776C107.043 149.26 106.387 149.531 105.703 149.531Z" fill="#FFB800"/>
<path d="M90.2344 123.75H74.7656C68.6139 123.743 62.716 121.296 58.3661 116.946C54.0161 112.596 51.5693 106.699 51.5625 100.547V64.4531C51.5693 58.3014 54.0161 52.4035 58.3661 48.0536C62.716 43.7036 68.6139 41.2568 74.7656 41.25H90.2344C96.3861 41.2568 102.284 43.7036 106.634 48.0536C110.984 52.4035 113.431 58.3014 113.438 64.4531V100.547C113.431 106.699 110.984 112.596 106.634 116.946C102.284 121.296 96.3861 123.743 90.2344 123.75ZM74.7656 46.4062C69.981 46.4117 65.3939 48.3148 62.0106 51.6981C58.6273 55.0814 56.7242 59.6685 56.7188 64.4531V100.547C56.7242 105.332 58.6273 109.919 62.0106 113.302C65.3939 116.685 69.981 118.588 74.7656 118.594H90.2344C95.019 118.588 99.6062 116.685 102.989 113.302C106.373 109.919 108.276 105.332 108.281 100.547V64.4531C108.276 59.6685 106.373 55.0814 102.989 51.6981C99.6062 48.3148 95.019 46.4117 90.2344 46.4062H74.7656Z" fill="#FFB800"/>
<path d="M82.499 113.438C81.8152 113.438 81.1594 113.166 80.6759 112.682C80.1925 112.199 79.9208 111.543 79.9208 110.859V88.0043L68.6828 97.3707C68.1577 97.809 67.4799 98.0207 66.7987 97.9593C66.1175 97.8979 65.4885 97.5684 65.0502 97.0433C64.6119 96.5181 64.4002 95.8404 64.4616 95.1592C64.523 94.4779 64.8525 93.849 65.3776 93.4107L78.4693 82.5001L65.3776 71.5894C65.1176 71.3724 64.9029 71.1063 64.7457 70.8063C64.5885 70.5063 64.492 70.1783 64.4616 69.841C64.4312 69.5036 64.4675 69.1636 64.5685 68.8404C64.6695 68.5171 64.8332 68.2169 65.0502 67.9569C65.2672 67.6968 65.5333 67.4821 65.8333 67.3249C66.1333 67.1678 66.4614 67.0712 66.7987 67.0408C67.136 67.0104 67.476 67.0467 67.7993 67.1477C68.1226 67.2487 68.4228 67.4124 68.6828 67.6294L79.9208 76.9958V54.1407C79.9209 53.6309 80.0722 53.1325 80.3555 52.7086C80.6388 52.2848 81.0414 51.9544 81.5124 51.7593C81.9834 51.5642 82.5017 51.5132 83.0018 51.6126C83.5018 51.7121 83.9611 51.9575 84.3217 52.3179L99.7904 67.7867C100.044 68.0398 100.242 68.343 100.371 68.6768C100.501 69.0106 100.56 69.3678 100.544 69.7256C100.528 70.0833 100.437 70.4338 100.278 70.7548C100.119 71.0757 99.8952 71.3599 99.6203 71.5894L86.526 82.5001L99.6203 93.4107C99.8952 93.6402 100.119 93.9245 100.278 94.2454C100.437 94.5663 100.528 94.9168 100.544 95.2745C100.56 95.6323 100.501 95.9895 100.371 96.3233C100.242 96.6571 100.044 96.9603 99.7904 97.2134L84.3217 112.682C83.8383 113.166 83.1827 113.437 82.499 113.438ZM85.0771 88.0043V104.636L94.1495 95.5634L85.0771 88.0043ZM85.0771 60.3643V76.9958L94.1495 69.4367L85.0771 60.3643Z" fill="#FFB800"/>
<path d="M131.927 92.3718C131.411 92.3705 130.907 92.2142 130.48 91.9232C130.054 91.6322 129.725 91.2199 129.535 90.7397C129.346 90.2594 129.305 89.7333 129.418 89.2296C129.531 88.7258 129.792 88.2676 130.169 87.9142C130.928 87.233 131.535 86.3996 131.951 85.4681C132.367 84.5366 132.582 83.5279 132.582 82.5078C132.582 81.4878 132.367 80.4791 131.951 79.5476C131.535 78.6161 130.928 77.7827 130.169 77.1015C129.669 76.6352 129.374 75.9893 129.35 75.3059C129.326 74.6224 129.575 73.9575 130.041 73.4573C130.507 72.9572 131.153 72.6627 131.837 72.6388C132.52 72.6149 133.185 72.8634 133.685 73.3297C134.962 74.4935 135.982 75.9109 136.68 77.4913C137.378 79.0717 137.738 80.7802 137.738 82.5078C137.738 84.2354 137.378 85.944 136.68 87.5244C135.982 89.1048 134.962 90.5222 133.685 91.686C133.207 92.1286 132.579 92.3736 131.927 92.3718Z" fill="#FFB800"/>
<path d="M147.571 106.951C147.054 106.951 146.549 106.795 146.121 106.503C145.693 106.212 145.363 105.799 145.174 105.318C144.984 104.836 144.944 104.309 145.058 103.804C145.172 103.3 145.435 102.841 145.813 102.488C148.607 99.9615 150.84 96.8773 152.368 93.4345C153.897 89.9917 154.687 86.2667 154.687 82.4999C154.687 78.733 153.897 75.008 152.368 71.5652C150.84 68.1224 148.607 65.0382 145.813 62.5117C145.566 62.2806 145.366 62.003 145.226 61.6948C145.086 61.3866 145.007 61.0539 144.996 60.7155C144.984 60.3771 145.039 60.0397 145.158 59.7226C145.277 59.4055 145.457 59.115 145.688 58.8675C145.919 58.62 146.197 58.4204 146.505 58.2802C146.813 58.14 147.146 58.0618 147.484 58.0502C147.823 58.0386 148.16 58.0938 148.477 58.2125C148.794 58.3313 149.085 58.5114 149.332 58.7424C152.643 61.7516 155.288 65.4194 157.098 69.5106C158.908 73.6018 159.843 78.0261 159.843 82.4999C159.843 86.9736 158.908 91.3979 157.098 95.4891C155.288 99.5803 152.643 103.248 149.332 106.257C148.854 106.703 148.225 106.951 147.571 106.951Z" fill="#FFB800"/>
<path d="M139.75 99.6601C139.232 99.6604 138.726 99.5049 138.298 99.2139C137.87 98.9228 137.54 98.5097 137.35 98.0282C137.16 97.5468 137.119 97.0193 137.233 96.5144C137.347 96.0095 137.61 95.5506 137.989 95.1974C139.766 93.594 141.187 91.6353 142.16 89.4481C143.132 87.2608 143.635 84.8938 143.635 82.5001C143.635 80.1064 143.132 77.7394 142.16 75.5521C141.187 73.3649 139.766 71.4062 137.989 69.8028C137.489 69.3358 137.195 68.6894 137.172 68.0057C137.149 67.3221 137.398 66.6572 137.865 66.1574C138.332 65.6575 138.978 65.3637 139.662 65.3405C140.346 65.3173 141.011 65.5666 141.51 66.0336C143.804 68.1201 145.636 70.6625 146.889 73.498C148.143 76.3336 148.791 79.3998 148.791 82.5001C148.791 85.6004 148.143 88.6666 146.889 91.5021C145.636 94.3377 143.804 96.8801 141.51 98.9666C141.033 99.4126 140.403 99.6605 139.75 99.6601Z" fill="#FFB800"/>
<path d="M33.0719 92.3717C32.4191 92.3714 31.7908 92.1236 31.3136 91.6782C30.0368 90.5144 29.0169 89.097 28.3191 87.5166C27.6212 85.9362 27.2607 84.2276 27.2607 82.5001C27.2607 80.7725 27.6212 79.0639 28.3191 77.4835C29.0169 75.9031 30.0368 74.4857 31.3136 73.3219C31.5572 73.0731 31.8487 72.8763 32.1705 72.7432C32.4923 72.6102 32.8377 72.5437 33.1859 72.5478C33.5341 72.5519 33.8779 72.6265 34.1964 72.767C34.515 72.9076 34.8018 73.1113 35.0395 73.3657C35.2772 73.6202 35.4609 73.9201 35.5796 74.2475C35.6982 74.5749 35.7493 74.9229 35.7297 75.2706C35.7101 75.6182 35.6203 75.9583 35.4657 76.2704C35.3111 76.5824 35.0949 76.8598 34.8302 77.086C34.0708 77.7671 33.4635 78.6006 33.0477 79.5321C32.6319 80.4636 32.417 81.4722 32.417 82.4923C32.417 83.5124 32.6319 84.521 33.0477 85.4525C33.4635 86.384 34.0708 87.2175 34.8302 87.8986C35.2093 88.2515 35.4734 88.7104 35.5879 89.2155C35.7025 89.7206 35.6623 90.2485 35.4725 90.7304C35.2828 91.2123 34.9523 91.6259 34.5241 91.9173C34.0959 92.2087 33.5898 92.3643 33.0719 92.364V92.3717Z" fill="#FFB800"/>
<path d="M17.4276 106.951C16.7739 106.951 16.1445 106.703 15.6667 106.257C12.3562 103.248 9.7112 99.5803 7.90121 95.4891C6.09122 91.3979 5.15625 86.9736 5.15625 82.4999C5.15625 78.0261 6.09122 73.6018 7.90121 69.5106C9.7112 65.4194 12.3562 61.7516 15.6667 58.7424C15.9142 58.5114 16.2048 58.3313 16.5219 58.2125C16.8389 58.0938 17.1763 58.0386 17.5147 58.0502C17.8531 58.0618 18.1859 58.14 18.4941 58.2802C18.8023 58.4204 19.0798 58.62 19.3109 58.8675C19.542 59.115 19.722 59.4055 19.8408 59.7226C19.9596 60.0397 20.0147 60.3771 20.0031 60.7155C19.9915 61.0539 19.9133 61.3866 19.7731 61.6948C19.6329 62.003 19.4333 62.2806 19.1859 62.5117C16.392 65.0382 14.1588 68.1224 12.6304 71.5652C11.102 75.008 10.3123 78.733 10.3123 82.4999C10.3123 86.2667 11.102 89.9917 12.6304 93.4345C14.1588 96.8773 16.392 99.9615 19.1859 102.488C19.5641 102.841 19.8273 103.3 19.9413 103.804C20.0554 104.309 20.0149 104.836 19.8253 105.318C19.6356 105.799 19.3055 106.212 18.8779 106.503C18.4503 106.795 17.9449 106.951 17.4276 106.951Z" fill="#FFB800"/>
<path d="M25.2501 99.6601C24.5964 99.6605 23.967 99.4126 23.4892 98.9666C21.196 96.8801 19.3639 94.3377 18.1102 91.5021C16.8566 88.6666 16.209 85.6004 16.209 82.5001C16.209 79.3998 16.8566 76.3336 18.1102 73.498C19.3639 70.6625 21.196 68.1201 23.4892 66.0336C23.9891 65.5666 24.6539 65.3173 25.3376 65.3405C26.0212 65.3637 26.6677 65.6575 27.1347 66.1574C27.6017 66.6572 27.851 67.3221 27.8278 68.0057C27.8046 68.6894 27.5108 69.3358 27.0109 69.8028C25.2336 71.4062 23.8127 73.3649 22.8402 75.5521C21.8676 77.7394 21.3651 80.1064 21.3651 82.5001C21.3651 84.8938 21.8676 87.2608 22.8402 89.4481C23.8127 91.6353 25.2336 93.594 27.0109 95.1974C27.3893 95.5506 27.6526 96.0095 27.7666 96.5144C27.8805 97.0193 27.8399 97.5468 27.6499 98.0282C27.4599 98.5097 27.1294 98.9228 26.7014 99.2139C26.2734 99.5049 25.7677 99.6604 25.2501 99.6601Z" fill="#FFB800"/>
</svg>
