<svg width="155" height="165" viewBox="0 0 155 165" fill="none" xmlns="http://www.w3.org/2000/svg">
<path d="M140.331 114.883H14.6689C20.4271 114.883 23.6827 111.932 25.531 107.041C34.4702 83.4241 10.6588 14.5989 77.5019 14.5989C144.344 14.5989 120.529 83.4241 129.469 107.041C131.32 111.932 134.577 114.883 140.331 114.883Z" fill="#FFDF8E"/>
<path d="M152.182 126.999C152.182 133.627 145.14 139 136.457 139H19.4812C15.1404 139 11.2083 137.657 8.36269 135.486C5.51704 133.314 3.75781 130.313 3.75781 126.999C3.75781 120.373 10.798 115 19.4812 115H136.457C140.799 115 144.732 116.343 147.577 118.514C150.423 120.686 152.182 123.687 152.182 126.999Z" fill="#FFDF8E"/>
<path d="M99.5759 141C97.8019 144.982 98.6459 150.656 94.8789 154.5C90.8499 158.611 82.0769 160.8 76.1143 162C68.8603 160.541 62.5349 157.457 57.9237 153.321C54.2073 149.987 52.022 140 57.9235 140L99.5759 141Z" fill="#FFDF8E"/>
<path d="M89.8676 15.5103C89.8946 15.2094 89.9049 14.906 89.9049 14.5989C89.9049 7.89043 84.3498 2.45093 77.5017 2.45093C70.6485 2.45093 65.0986 7.89043 65.0986 14.5989C65.0986 14.906 65.1076 15.2094 65.1346 15.5103" fill="#FFB800"/>
<path d="M140.331 112.43H140.321C135.476 112.428 132.741 109.966 131.176 104.203C129.576 98.3086 129.522 89.761 129.465 80.7112C129.397 69.7466 129.32 57.3192 126.537 46.2048C126.208 44.8906 124.852 44.0862 123.51 44.4085C122.17 44.7307 121.348 46.0575 121.676 47.3718C124.32 57.926 124.395 70.0475 124.461 80.7414C124.521 90.1123 124.575 98.9632 126.339 105.461C127.107 108.288 128.207 110.61 129.628 112.43H25.3717C26.7932 110.61 27.8934 108.288 28.6608 105.461C30.4255 98.9632 30.4807 90.1123 30.5386 80.7414C30.6273 66.4346 30.7288 50.2193 36.7054 37.8096C43.4326 23.8401 56.7766 17.0486 77.5006 17.0486C88.8819 17.0486 98.1952 19.1433 105.181 23.2761C111.238 26.8588 115.685 31.9509 118.777 38.8431C119.332 40.0818 120.809 40.6458 122.073 40.1007C123.338 39.5568 123.914 38.1117 123.359 36.8717C119.887 29.1323 114.642 23.1465 107.768 19.0804C103.38 16.4846 98.2273 14.6127 92.3586 13.4722C91.7674 5.94807 85.3319 0 77.5006 0C69.6693 0 63.2326 5.94933 62.6452 13.4747C57.0465 14.5611 52.0968 16.3122 47.8489 18.7229C41.0137 22.6027 35.7414 28.3216 32.1786 35.7186C25.7316 49.1065 25.6262 65.897 25.5349 80.7112C25.4784 89.761 25.4257 98.3086 23.8242 104.203C22.2587 109.966 19.5236 112.428 14.6793 112.43H14.6691C6.5807 112.43 0 118.876 0 126.799C0 134.721 6.5807 141.166 14.6691 141.166H39.8991C41.2808 141.166 42.4016 140.068 42.4016 138.715C42.4016 137.362 41.2808 136.265 39.8991 136.265H14.6691C9.34023 136.265 5.00365 132.018 5.00365 126.799C5.00365 121.58 9.33894 117.334 14.6678 117.332H14.6781H140.321H140.33H140.332C145.66 117.334 149.995 121.58 149.995 126.799C149.995 132.018 145.658 136.265 140.33 136.265H40.5137C39.1321 136.265 38.0126 137.362 38.0126 138.715C38.0126 140.068 39.1321 141.166 40.5137 141.166H50.7845C52.0505 154.515 63.5462 165 77.5006 165C91.4538 165 102.949 154.515 104.215 141.166H140.331C148.419 141.166 155 134.721 155 126.799C155 118.876 148.419 112.43 140.331 112.43ZM77.5006 4.9007C82.2922 4.9007 86.2998 8.25302 87.2085 12.688C84.1366 12.333 80.9028 12.1479 77.5006 12.1479C74.0985 12.1479 70.8647 12.3317 67.7941 12.6867C68.7028 8.25176 72.7091 4.9007 77.5006 4.9007ZM77.5006 160.099C66.3083 160.099 57.0606 151.806 55.8152 141.166H99.1848C97.9394 151.806 88.6917 160.099 77.5006 160.099Z" fill="#FFB800"/>
<path d="M117.674 15.3793C117.719 15.4032 122.174 17.8932 126.557 23.6776C132.428 31.4246 135.404 41.1026 135.404 52.4437C135.404 53.7969 136.525 54.8946 137.906 54.8946C139.288 54.8946 140.409 53.7969 140.409 52.4437C140.409 36.8314 134.965 26.4685 130.399 20.5254C125.381 13.9945 120.316 11.2087 120.102 11.0929C118.895 10.4408 117.381 10.8688 116.71 12.0471C116.04 13.2266 116.473 14.7171 117.674 15.3793Z" fill="#FFB800"/>
<path d="M136.551 16.2781C136.953 16.5362 146.412 22.7536 146.412 38.3961C146.412 39.7494 147.533 40.8459 148.914 40.8459C150.296 40.8459 151.416 39.7494 151.416 38.3961C151.416 19.9464 139.746 12.46 139.249 12.1503C138.088 11.4265 136.554 11.7613 135.808 12.8956C135.063 14.0285 135.398 15.5417 136.551 16.2781Z" fill="#FFB800"/>
<path d="M17.093 54.8948C18.4747 54.8948 19.5955 53.797 19.5955 52.4438C19.5955 41.1028 22.5722 31.4247 28.4422 23.6777C32.798 17.9298 37.2259 15.4348 37.3236 15.3794C38.5279 14.7235 38.9649 13.2355 38.2978 12.0535C37.6282 10.8689 36.1064 10.4396 34.8969 11.093C34.6836 11.2088 29.6182 13.9946 24.6004 20.5256C20.035 26.4686 14.5918 36.8315 14.5918 52.4438C14.5918 53.797 15.7113 54.8948 17.093 54.8948Z" fill="#FFB800"/>
<path d="M6.08646 40.846C7.46815 40.846 8.58764 39.7495 8.58764 38.3962C8.58764 22.7663 18.032 16.5451 18.4484 16.2795C19.6052 15.5506 19.9445 14.0412 19.2055 12.9032C18.4639 11.7614 16.9176 11.4253 15.7506 12.1517C15.2545 12.4614 3.58398 19.9465 3.58398 38.3962C3.58398 39.7495 4.70476 40.846 6.08646 40.846Z" fill="#FFB800"/>
</svg>
