<svg width="165" height="165" viewBox="0 0 165 165" fill="none" xmlns="http://www.w3.org/2000/svg">
<path d="M105.703 134.062C105.7 138.646 104.337 143.127 101.788 146.937C99.2393 150.747 95.6181 153.715 91.3823 155.468C87.1465 157.221 82.4863 157.678 77.9905 156.783C73.4947 155.888 69.3652 153.68 66.1238 150.439C62.8824 147.197 60.6746 143.068 59.7794 138.572C58.8842 134.076 59.3418 129.416 61.0944 125.18C62.847 120.944 65.8159 117.323 69.6259 114.774C73.4359 112.225 77.916 110.863 82.5 110.859C86.0906 110.853 89.6322 111.692 92.8383 113.309H93.4571C92.6899 115.136 92.6064 117.179 93.2218 119.063C93.8373 120.947 95.1105 122.547 96.8086 123.569L104.079 125.58C105.158 128.278 105.71 131.157 105.703 134.062Z" fill="#FFDF8E"/>
<path d="M146.953 90.2344H157.266V131.484H146.953V90.2344Z" fill="#FFDF8E"/>
<path d="M7.73438 7.73438H18.0469V48.9844H7.73438V7.73438Z" fill="#FFDF8E"/>
<path d="M144.375 33.5156V38.6719H70.6924C71.6748 37.3152 72.1986 35.6804 72.1877 34.0055C72.1888 31.9011 71.3758 29.8779 69.9189 28.3594H139.219C140.585 28.3635 141.894 28.908 142.86 29.8741C143.827 30.8402 144.371 32.1494 144.375 33.5156Z" fill="#FFDF8E"/>
<path d="M56.7188 48.9844V74.7656C56.7228 76.1319 57.2674 77.441 58.2335 78.4071C59.1996 79.3732 60.5087 79.9178 61.875 79.9219H139.219C140.585 79.9178 141.894 79.3732 142.86 78.4071C143.826 77.441 144.371 76.1319 144.375 74.7656V48.9844H56.7188ZM128.906 69.6094C128.172 69.6067 127.447 69.4466 126.78 69.1397C126.112 68.8328 125.519 68.3863 125.039 67.8305C124.351 68.6247 123.436 69.1896 122.417 69.4494C121.399 69.7092 120.325 69.6515 119.34 69.2841C118.356 68.9167 117.507 68.2571 116.907 67.3937C116.308 66.5302 115.987 65.5042 115.987 64.4531C115.987 63.402 116.308 62.376 116.907 61.5126C117.507 60.6492 118.356 59.9896 119.34 59.6221C120.325 59.2547 121.399 59.1971 122.417 59.4569C123.436 59.7167 124.351 60.2815 125.039 61.0758C125.605 60.4224 126.327 59.9219 127.138 59.6205C127.948 59.319 128.821 59.2262 129.677 59.3506C130.533 59.475 131.343 59.8126 132.034 60.3323C132.726 60.8521 133.275 61.5373 133.632 62.3249C133.989 63.1125 134.142 63.9772 134.077 64.8395C134.012 65.7018 133.732 66.5339 133.261 67.2594C132.79 67.9848 132.145 68.5802 131.384 68.9909C130.623 69.4015 129.771 69.6142 128.906 69.6094Z" fill="#FFDF8E"/>
<path d="M139.219 82.5C141.27 82.5 143.237 81.6851 144.688 80.2346C146.138 78.7842 146.953 76.8169 146.953 74.7656V33.5156C146.953 31.4643 146.138 29.4971 144.688 28.0466C143.237 26.5961 141.27 25.7812 139.219 25.7812H98.6442C98.3438 25.4293 98.0134 25.1041 97.6568 24.8093C97.5559 24.7264 97.448 24.6522 97.3345 24.5876L73.4869 10.6657C73.2283 10.5133 72.9445 10.4085 72.649 10.3563L44.2896 5.20007C43.9703 5.13822 43.6421 5.13822 43.3228 5.20007L20.625 9.74531V7.73437C20.625 7.05061 20.3534 6.39485 19.8699 5.91136C19.3864 5.42787 18.7306 5.15624 18.0469 5.15624H7.73438C7.05061 5.15624 6.39486 5.42787 5.91137 5.91136C5.42787 6.39485 5.15625 7.05061 5.15625 7.73437V48.9844C5.15625 49.6681 5.42787 50.3239 5.91137 50.8074C6.39486 51.2909 7.05061 51.5625 7.73438 51.5625H18.0469C18.7306 51.5625 19.3864 51.2909 19.8699 50.8074C20.3534 50.3239 20.625 49.6681 20.625 48.9844V42.8433L32.3632 48.7266C32.7222 48.9005 33.1167 48.9888 33.5156 48.9844H48.9844C49.217 48.9846 49.4485 48.9534 49.6727 48.8916L54.1406 47.6489V74.7656C54.1406 76.8169 54.9555 78.7842 56.406 80.2346C57.8564 81.6851 59.8237 82.5 61.875 82.5H139.219ZM59.2969 46.2258L68.8849 43.5523C69.1073 43.4913 69.3199 43.3993 69.5166 43.279C70.4271 42.7304 71.2486 42.0462 71.9529 41.25H141.797V46.4062H59.2969V46.2258ZM141.797 33.5156V36.0937H74.5387C74.6823 35.4067 74.7582 34.7073 74.7656 34.0055C74.746 32.963 74.5723 31.9291 74.25 30.9375H139.219C139.903 30.9375 140.558 31.2091 141.042 31.6926C141.525 32.1761 141.797 32.8319 141.797 33.5156ZM15.4688 46.4062H10.3125V10.3125H15.4688V46.4062ZM48.6338 43.8281H34.1241L20.625 37.0786V15.0047L43.8513 10.3641L71.2774 15.345L89.1541 25.7812H70.8495C68.9355 24.1273 66.4929 23.2128 63.9633 23.2031H51.5625V28.3594H63.9633C65.4572 28.3708 66.8866 28.9694 67.943 30.0257C68.9994 31.0821 69.5979 32.5116 69.6094 34.0055C69.6129 35.181 69.2337 36.3258 68.5291 37.2668C68.1616 37.8278 67.6867 38.3106 67.1318 38.6873L48.6338 43.8281ZM59.2969 74.7656V51.5625H141.797V74.7656C141.797 75.4494 141.525 76.1051 141.042 76.5886C140.558 77.0721 139.903 77.3437 139.219 77.3437H61.875C61.1912 77.3437 60.5355 77.0721 60.052 76.5886C59.5685 76.1051 59.2969 75.4494 59.2969 74.7656Z" fill="#FFB800"/>
<path d="M121.171 72.1875C122.531 72.1857 123.866 71.8227 125.039 71.1356C126.214 71.8205 127.549 72.1833 128.909 72.1875C130.27 72.1916 131.607 71.8369 132.786 71.1591C133.966 70.4813 134.946 69.5044 135.627 68.3271C136.308 67.1497 136.667 65.8134 136.667 64.4531C136.667 63.0928 136.308 61.7566 135.627 60.5792C134.946 59.4018 133.966 58.4249 132.786 57.7472C131.607 57.0694 130.27 56.7147 128.909 56.7188C127.549 56.7229 126.214 57.0857 125.039 57.7706C124.012 57.1721 122.86 56.8184 121.674 56.737C120.488 56.6555 119.299 56.8486 118.2 57.3012C117.101 57.7538 116.121 58.4537 115.336 59.3465C114.551 60.2394 113.982 61.3011 113.674 62.4493C113.366 63.5976 113.327 64.8013 113.56 65.9671C113.792 67.1329 114.291 68.2294 115.016 69.1714C115.741 70.1134 116.674 70.8755 117.741 71.3986C118.809 71.9217 119.983 72.1916 121.171 72.1875ZM121.171 61.875C121.538 61.8771 121.9 61.9584 122.232 62.1132C122.565 62.2681 122.86 62.4928 123.097 62.7722C123.347 63.0367 123.648 63.2475 123.981 63.3915C124.315 63.5356 124.675 63.6099 125.039 63.6099C125.402 63.6099 125.762 63.5356 126.096 63.3915C126.43 63.2475 126.731 63.0367 126.98 62.7722C127.217 62.4928 127.513 62.2681 127.845 62.1132C128.177 61.9584 128.539 61.8771 128.906 61.875C129.59 61.875 130.245 62.1466 130.729 62.6301C131.212 63.1136 131.484 63.7694 131.484 64.4531C131.484 65.1369 131.212 65.7926 130.729 66.2761C130.245 66.7596 129.59 67.0312 128.906 67.0312C128.539 67.0291 128.177 66.9479 127.845 66.793C127.513 66.6382 127.217 66.4134 126.98 66.1341C126.738 65.8571 126.44 65.6352 126.105 65.4831C125.77 65.3311 125.406 65.2524 125.039 65.2524C124.671 65.2524 124.307 65.3311 123.973 65.4831C123.638 65.6352 123.339 65.8571 123.097 66.1341C122.86 66.4134 122.565 66.6382 122.232 66.793C121.9 66.9479 121.538 67.0291 121.171 67.0312C120.488 67.0312 119.832 66.7596 119.348 66.2761C118.865 65.7926 118.593 65.1369 118.593 64.4531C118.593 63.7694 118.865 63.1136 119.348 62.6301C119.832 62.1466 120.488 61.875 121.171 61.875Z" fill="#FFB800"/>
<path d="M64.4531 56.7188H74.7656V61.875H64.4531V56.7188Z" fill="#FFB800"/>
<path d="M64.4531 67.0312H82.5V72.1875H64.4531V67.0312Z" fill="#FFB800"/>
<path d="M87.6562 128.906H92.8125C92.8125 126.855 91.9976 124.888 90.5471 123.437C89.0967 121.987 87.1294 121.172 85.0781 121.172V118.594H79.9219V121.172C77.8706 121.172 75.9033 121.987 74.4528 123.437C73.0024 124.888 72.1875 126.855 72.1875 128.906C72.1875 130.958 73.0024 132.925 74.4528 134.375C75.9033 135.826 77.8706 136.641 79.9219 136.641V141.797C79.2381 141.797 78.5824 141.525 78.0989 141.042C77.6154 140.558 77.3438 139.903 77.3438 139.219H72.1875C72.1875 141.27 73.0024 143.237 74.4528 144.688C75.9033 146.138 77.8706 146.953 79.9219 146.953V149.531H85.0781V146.953C87.1294 146.953 89.0967 146.138 90.5471 144.688C91.9976 143.237 92.8125 141.27 92.8125 139.219C92.8125 137.167 91.9976 135.2 90.5471 133.75C89.0967 132.299 87.1294 131.484 85.0781 131.484V126.328C85.7619 126.328 86.4176 126.6 86.9011 127.083C87.3846 127.567 87.6562 128.222 87.6562 128.906ZM87.6562 139.219C87.6562 139.903 87.3846 140.558 86.9011 141.042C86.4176 141.525 85.7619 141.797 85.0781 141.797V136.641C85.7619 136.641 86.4176 136.912 86.9011 137.396C87.3846 137.879 87.6562 138.535 87.6562 139.219ZM79.9219 131.484C79.2381 131.484 78.5824 131.213 78.0989 130.729C77.6154 130.246 77.3438 129.59 77.3438 128.906C77.3438 128.222 77.6154 127.567 78.0989 127.083C78.5824 126.6 79.2381 126.328 79.9219 126.328V131.484Z" fill="#FFB800"/>
<path d="M157.266 87.6562H146.953C146.27 87.6562 145.614 87.9279 145.13 88.4114C144.647 88.8949 144.375 89.5506 144.375 90.2344V92.2453L121.688 87.7078C121.368 87.646 121.04 87.646 120.721 87.7078L92.3616 92.8641C92.0661 92.9162 91.7823 93.021 91.5237 93.1734L67.6761 107.095C67.5626 107.16 67.4547 107.234 67.3538 107.317C66.4504 108.039 65.7208 108.954 65.2187 109.996C64.7167 111.037 64.4552 112.178 64.4534 113.334V115.719C61.2855 118.839 58.9792 122.726 57.7591 127.002C56.539 131.278 56.4466 135.796 57.491 140.119C58.5353 144.441 60.6808 148.419 63.7186 151.665C66.7564 154.912 70.5831 157.318 74.8261 158.647C79.0692 159.976 83.5841 160.184 87.9315 159.251C92.2789 158.318 96.3106 156.275 99.6343 153.321C102.958 150.368 105.46 146.604 106.898 142.397C108.336 138.189 108.66 133.681 107.838 129.311L115.315 131.392C115.543 131.453 115.779 131.484 116.016 131.484H131.485C131.884 131.489 132.278 131.401 132.637 131.227L144.375 125.343V131.484C144.375 132.168 144.647 132.824 145.13 133.307C145.614 133.791 146.27 134.062 146.953 134.062H157.266C157.95 134.062 158.605 133.791 159.089 133.307C159.572 132.824 159.844 132.168 159.844 131.484V90.2344C159.844 89.5506 159.572 88.8949 159.089 88.4114C158.605 87.9279 157.95 87.6562 157.266 87.6562ZM103.125 134.062C103.147 138.5 101.74 142.826 99.1121 146.401C96.4841 149.977 92.7749 152.611 88.5334 153.914C84.2919 155.218 79.7434 155.121 75.5612 153.639C71.3789 152.156 67.785 149.366 65.3115 145.682C62.8379 141.999 61.616 137.616 61.8266 133.184C62.0373 128.752 63.6693 124.505 66.4811 121.072C69.2929 117.64 73.1351 115.203 77.4391 114.124C81.7431 113.045 86.2802 113.38 90.379 115.08C90.0185 117.172 90.3156 119.324 91.2294 121.24C92.1432 123.157 93.6286 124.742 95.4811 125.779C95.6806 125.898 95.8947 125.991 96.1179 126.055L102.094 127.715C102.776 129.762 103.124 131.905 103.125 134.062ZM130.876 126.328H116.369L97.8685 121.187C96.8679 120.509 96.1114 119.527 95.7101 118.386C95.3088 117.246 95.2839 116.006 95.6391 114.851C95.9942 113.695 96.7107 112.684 97.6832 111.965C98.6557 111.247 99.8331 110.859 101.042 110.859H113.438V105.703H101.042C99.3221 105.707 97.6278 106.121 96.1007 106.913C94.5736 107.705 93.2579 108.85 92.2636 110.254C89.1721 108.956 85.8533 108.285 82.5003 108.281C78.8356 108.289 75.2148 109.08 71.881 110.602L93.7229 97.8476L121.149 92.8615L144.375 97.5047V119.579L130.876 126.328ZM154.688 128.906H149.532V92.8125H154.688V128.906Z" fill="#FFB800"/>
</svg>
