<svg width="16" height="4" viewBox="0 0 16 4" fill="none" xmlns="http://www.w3.org/2000/svg">
<path d="M1.99658 3.15771C2.78516 3.15771 3.36035 2.55469 3.36035 1.77539C3.36035 0.996094 2.78516 0.393066 1.99658 0.393066C1.21729 0.393066 0.632812 0.996094 0.632812 1.77539C0.632812 2.55469 1.21729 3.15771 1.99658 3.15771ZM7.98975 3.15771C8.77832 3.15771 9.35352 2.55469 9.35352 1.77539C9.35352 0.996094 8.77832 0.393066 7.98975 0.393066C7.21045 0.393066 6.62598 0.996094 6.62598 1.77539C6.62598 2.55469 7.21045 3.15771 7.98975 3.15771ZM13.9829 3.15771C14.7715 3.15771 15.3467 2.55469 15.3467 1.77539C15.3467 0.996094 14.7715 0.393066 13.9829 0.393066C13.2036 0.393066 12.6191 0.996094 12.6191 1.77539C12.6191 2.55469 13.2036 3.15771 13.9829 3.15771Z" fill="#333333"/>
</svg>
