<svg width="243" height="243" viewBox="0 0 243 243" fill="none" xmlns="http://www.w3.org/2000/svg">
<g clip-path="url(#clip0)">
<path d="M206.55 93.0234C206.564 92.3467 206.537 91.6718 206.464 90.9988C205.411 63.9851 182.25 58.5994 153.899 58.5994C125.551 58.5994 102.388 63.9851 101.335 90.9988C101.264 91.6718 101.234 92.3467 101.249 93.0234H206.55Z" fill="#FFDF8E"/>
<path d="M76.9499 131.498C74.714 131.498 72.9009 129.685 72.9009 127.449V123.398C72.9009 116.689 78.3403 111.248 85.0498 111.248H101.25C103.487 111.248 105.3 113.063 105.3 115.299C105.3 117.534 103.487 119.349 101.25 119.349H85.0498C82.8139 119.349 81.0008 121.163 81.0008 123.398V127.449C81.0008 128.523 80.5743 129.554 79.8142 130.312C79.0541 131.072 78.0252 131.498 76.9499 131.498Z" fill="#A5A5A4"/>
<path d="M230.849 131.498C228.613 131.498 226.8 129.685 226.8 127.449V123.398C226.8 121.163 224.987 119.349 222.749 119.349H206.549C204.314 119.349 202.5 117.534 202.5 115.299C202.5 113.063 204.314 111.248 206.549 111.248H222.749C229.461 111.248 234.9 116.689 234.9 123.398V127.449C234.9 128.523 234.474 129.554 233.713 130.312C232.953 131.072 231.924 131.498 230.849 131.498Z" fill="#A5A5A4"/>
<path d="M166.05 78.8482H141.751C139.513 78.8482 137.7 77.035 137.7 74.7992C137.7 72.5615 139.513 70.7483 141.751 70.7483H166.05C168.286 70.7483 170.099 72.5615 170.099 74.7992C170.099 77.035 168.286 78.8482 166.05 78.8482Z" fill="#FFB800"/>
<g filter="url(#filter0_d)">
<path d="M76.9497 82.8991C76.9497 103.029 60.6313 119.349 40.4993 119.349C20.3692 119.349 4.05078 103.029 4.05078 82.8991C4.05078 62.7671 20.3692 46.4487 40.4993 46.4487C60.6313 46.4487 76.9497 62.7671 76.9497 82.8991Z" fill="#FAF9F9"/>
</g>
<path d="M42.5258 86.948H32.3996C30.1637 86.948 28.3506 85.1349 28.3506 82.899C28.3506 80.6613 30.1637 78.8481 32.3996 78.8481H42.5258C44.7617 78.8481 46.5749 80.6613 46.5749 82.899C46.5749 85.1349 44.7617 86.948 42.5258 86.948Z" fill="#4482C3"/>
<path d="M238.949 240.849H4.05087C1.81316 240.849 0 239.034 0 236.799C0 234.563 1.81316 232.748 4.05087 232.748H238.949C241.187 232.748 243 234.563 243 236.799C243 239.034 241.187 240.849 238.949 240.849Z" fill="#5E5F62"/>
<path d="M42.5258 86.948H32.3996C30.1637 86.948 28.3506 85.1348 28.3506 82.899V66.6992C28.3506 62.2257 31.9769 58.5994 36.4505 58.5994H42.5258C50.3532 58.5994 56.6992 64.9454 56.6992 72.7727C56.6992 80.6019 50.3532 86.948 42.5258 86.948ZM36.4505 78.8481H42.5258C45.8796 78.8481 48.5993 76.1284 48.5993 72.7727C48.5993 69.419 45.8796 66.6992 42.5258 66.6992H36.4505V78.8481Z" fill="#4460C3"/>
<path d="M42.5258 107.199H36.4505C31.9769 107.199 28.3506 103.572 28.3506 99.0988V82.899C28.3506 80.6613 30.1637 78.8481 32.3996 78.8481H42.5258C50.3532 78.8481 56.6992 85.1942 56.6992 93.0234C56.6992 100.853 50.3532 107.199 42.5258 107.199ZM36.4505 86.948V99.0988H42.5258C45.8796 99.0988 48.5993 96.379 48.5993 93.0234C48.5993 89.6678 45.8796 86.948 42.5258 86.948H36.4505Z" fill="#4460C3"/>
<path d="M32.3994 118.458H48.5992V220.599H32.3994V118.458Z" fill="#E1E1E1"/>
<path d="M12.1507 220.599H68.8498C73.3234 220.599 76.9497 224.225 76.9497 228.699V236.799H4.05078V228.699C4.05078 224.225 7.67709 220.599 12.1507 220.599Z" fill="#BCBCBC"/>
<path d="M206.55 163.898V204.399C206.537 208.867 202.918 212.486 198.45 212.499H109.349C104.881 212.486 101.264 208.867 101.25 204.399V163.898H206.55Z" fill="#FFB800"/>
<path d="M101.25 90.9989H206.55V107.199H101.25V90.9989Z" fill="#FFB800"/>
<path d="M101.25 107.199H206.55V163.898H101.25V107.199Z" fill="#393939"/>
<path d="M129.6 212.499V228.699C129.6 233.172 125.973 236.799 121.5 236.799H117.449C112.975 236.799 109.349 233.172 109.349 228.699V212.499H129.6Z" fill="#2C2F38"/>
<path d="M198.45 212.499V228.699C198.45 233.172 194.824 236.799 190.35 236.799H186.301C181.827 236.799 178.199 233.172 178.199 228.699V212.499H198.45Z" fill="#2C2F38"/>
<path d="M72.9005 127.449H81.0004C83.2362 127.449 85.0494 129.262 85.0494 131.498V155.798C85.0494 158.036 83.2362 159.849 81.0004 159.849H72.9005C70.6628 159.849 68.8496 158.036 68.8496 155.798V131.498C68.8496 129.262 70.6628 127.449 72.9005 127.449Z" fill="#FFB800"/>
<path d="M226.8 127.449H234.9C237.136 127.449 238.949 129.262 238.949 131.498V155.798C238.949 158.036 237.136 159.849 234.9 159.849H226.8C224.563 159.849 222.75 158.036 222.75 155.798V131.498C222.75 129.262 224.563 127.449 226.8 127.449Z" fill="#FFB800"/>
<path d="M139.248 196.299H121.5C119.264 196.299 117.449 194.486 117.449 192.248V184.148C117.449 181.913 119.264 180.099 121.5 180.099H135.197C136.73 180.099 138.132 180.967 138.818 182.339L142.869 190.439C143.495 191.694 143.429 193.183 142.691 194.377C141.953 195.571 140.649 196.297 139.248 196.299Z" fill="white"/>
<path d="M168.553 196.299H186.301C188.537 196.299 190.35 194.486 190.35 192.248V184.148C190.35 181.913 188.537 180.099 186.301 180.099H172.602C171.069 180.099 169.668 180.967 168.982 182.339L164.933 190.439C164.306 191.694 164.373 193.183 165.111 194.377C165.847 195.571 167.15 196.297 168.553 196.299Z" fill="white"/>
<path d="M117.449 139.598C115.812 139.598 114.336 138.612 113.71 137.099C113.083 135.584 113.428 133.843 114.586 132.685L126.737 120.536C128.326 119.001 130.851 119.023 132.414 120.584C133.977 122.147 133.997 124.672 132.464 126.263L120.313 138.412C119.553 139.172 118.524 139.598 117.449 139.598Z" fill="#DDF7FF"/>
<path d="M129.6 151.749C127.963 151.749 126.485 150.761 125.858 149.248C125.232 147.735 125.579 145.994 126.737 144.836L151.037 120.536C152.626 119.001 155.151 119.023 156.714 120.584C158.277 122.147 158.299 124.672 156.764 126.263L132.464 150.562C131.704 151.321 130.673 151.749 129.6 151.749Z" fill="#DDF7FF"/>
<path d="M105.3 18.0982H56.6991C52.2311 18.0852 48.6141 14.4663 48.5992 9.9983C48.5881 7.84958 49.4502 5.78799 50.989 4.28815C52.4907 2.74938 54.5504 1.8873 56.6991 1.89842H170.099C174.567 1.9114 178.186 5.5303 178.199 9.9983C178.212 12.147 177.348 14.2086 175.811 15.7084C174.31 17.2472 172.248 18.1093 170.099 18.0982V26.1981H218.7C223.168 26.211 226.787 29.8299 226.8 34.2979C226.767 38.7585 223.159 42.3663 218.7 42.3978H105.3C100.832 42.3848 97.2133 38.7659 97.2003 34.2979C97.2337 29.8392 100.84 26.2314 105.3 26.1981V18.0982Z" fill="#DDF7FF"/>
</g>
<defs>
<filter id="filter0_d" x="-3.94922" y="39.4487" width="88.8989" height="88.9008" filterUnits="userSpaceOnUse" color-interpolation-filters="sRGB">
<feFlood flood-opacity="0" result="BackgroundImageFix"/>
<feColorMatrix in="SourceAlpha" type="matrix" values="0 0 0 0 0 0 0 0 0 0 0 0 0 0 0 0 0 0 127 0"/>
<feOffset dy="1"/>
<feGaussianBlur stdDeviation="4"/>
<feColorMatrix type="matrix" values="0 0 0 0 0.629167 0 0 0 0 0.629167 0 0 0 0 0.629167 0 0 0 0.4 0"/>
<feBlend mode="normal" in2="BackgroundImageFix" result="effect1_dropShadow"/>
<feBlend mode="normal" in="SourceGraphic" in2="effect1_dropShadow" result="shape"/>
</filter>
<clipPath id="clip0">
<rect width="243" height="243" fill="white"/>
</clipPath>
</defs>
</svg>
