<svg width="309" height="309" viewBox="0 0 309 309" fill="none" xmlns="http://www.w3.org/2000/svg">
<g clip-path="url(#clip0)">
<path d="M262.65 118.289C262.669 117.428 262.633 116.57 262.541 115.715C261.202 81.3637 231.75 74.5153 195.7 74.5153C159.651 74.5153 130.197 81.3637 128.858 115.715C128.768 116.57 128.731 117.428 128.749 118.289H262.65Z" fill="#FFDF8E"/>
<path d="M97.8494 167.214C95.0063 167.214 92.7007 164.908 92.7007 162.065V156.914C92.7007 148.382 99.6175 141.463 108.149 141.463H128.749C131.594 141.463 133.9 143.771 133.9 146.614C133.9 149.457 131.594 151.765 128.749 151.765H108.149C105.306 151.765 103.001 154.071 103.001 156.914V162.065C103.001 163.43 102.458 164.741 101.492 165.705C100.525 166.672 99.2168 167.214 97.8494 167.214Z" fill="#A5A5A4"/>
<path d="M293.549 167.214C290.706 167.214 288.4 164.908 288.4 162.065V156.914C288.4 154.071 286.094 151.765 283.249 151.765H262.649C259.806 151.765 257.5 149.457 257.5 146.614C257.5 143.771 259.806 141.463 262.649 141.463H283.249C291.783 141.463 298.7 148.382 298.7 156.914V162.065C298.7 163.43 298.158 164.741 297.191 165.705C296.224 166.672 294.916 167.214 293.549 167.214Z" fill="#A5A5A4"/>
<path d="M211.15 100.264H180.251C177.405 100.264 175.1 97.9581 175.1 95.115C175.1 92.2695 177.405 89.9639 180.251 89.9639H211.15C213.993 89.9639 216.299 92.2695 216.299 95.115C216.299 97.9581 213.993 100.264 211.15 100.264Z" fill="#FFB800"/>
<g filter="url(#filter0_d)">
<path d="M97.8495 105.415C97.8495 131.012 77.0989 151.765 51.499 151.765C25.9014 151.765 5.15088 131.012 5.15088 105.415C5.15088 79.815 25.9014 59.0645 51.499 59.0645C77.0989 59.0645 97.8495 79.815 97.8495 105.415Z" fill="#FAF9F9"/>
</g>
<path d="M54.0761 110.564H41.1995C38.3564 110.564 36.0508 108.258 36.0508 105.415C36.0508 102.569 38.3564 100.264 41.1995 100.264H54.0761C56.9192 100.264 59.2248 102.569 59.2248 105.415C59.2248 108.258 56.9192 110.564 54.0761 110.564Z" fill="#4482C3"/>
<path d="M303.849 306.265H5.1511C2.30562 306.265 0 303.957 0 301.114C0 298.271 2.30562 295.963 5.1511 295.963H303.849C306.694 295.963 309 298.271 309 301.114C309 303.957 306.694 306.265 303.849 306.265Z" fill="#5E5F62"/>
<path d="M54.0761 110.564H41.1995C38.3564 110.564 36.0508 108.258 36.0508 105.415V84.8151C36.0508 79.1265 40.662 74.5153 46.3506 74.5153H54.0761C64.0294 74.5153 72.0991 82.5849 72.0991 92.5382C72.0991 102.494 64.0294 110.564 54.0761 110.564ZM46.3506 100.264H54.0761C58.3408 100.264 61.7992 96.8052 61.7992 92.5382C61.7992 88.2735 58.3408 84.8151 54.0761 84.8151H46.3506V100.264Z" fill="#4460C3"/>
<path d="M54.0761 136.314H46.3506C40.662 136.314 36.0508 131.703 36.0508 126.014V105.415C36.0508 102.569 38.3564 100.264 41.1995 100.264H54.0761C64.0294 100.264 72.0991 108.333 72.0991 118.289C72.0991 128.245 64.0294 136.314 54.0761 136.314ZM46.3506 110.564V126.014H54.0761C58.3408 126.014 61.7992 122.556 61.7992 118.289C61.7992 114.022 58.3408 110.564 54.0761 110.564H46.3506Z" fill="#4460C3"/>
<path d="M41.1992 150.631H61.7989V280.515H41.1992V150.631Z" fill="#E1E1E1"/>
<path d="M15.4507 280.515H87.5496C93.2382 280.515 97.8495 285.126 97.8495 290.814V301.114H5.15088V290.814C5.15088 285.126 9.76212 280.515 15.4507 280.515Z" fill="#BCBCBC"/>
<path d="M262.65 208.413V259.915C262.633 265.596 258.032 270.198 252.35 270.215H139.049C133.368 270.198 128.768 265.596 128.75 259.915V208.413H262.65Z" fill="#FFB800"/>
<path d="M128.75 115.715H262.65V136.314H128.75V115.715Z" fill="#FFB800"/>
<path d="M128.75 136.314H262.65V208.413H128.75V136.314Z" fill="#393939"/>
<path d="M164.8 270.215V290.814C164.8 296.503 160.189 301.114 154.5 301.114H149.349C143.661 301.114 139.049 296.503 139.049 290.814V270.215H164.8Z" fill="#2C2F38"/>
<path d="M252.35 270.215V290.814C252.35 296.503 247.739 301.114 242.05 301.114H236.901C231.213 301.114 226.599 296.503 226.599 290.814V270.215H252.35Z" fill="#2C2F38"/>
<path d="M92.7009 162.065H103.001C105.844 162.065 108.149 164.371 108.149 167.214V198.113C108.149 200.959 105.844 203.265 103.001 203.265H92.7009C89.8554 203.265 87.5498 200.959 87.5498 198.113V167.214C87.5498 164.371 89.8554 162.065 92.7009 162.065Z" fill="#FFB800"/>
<path d="M288.401 162.065H298.7C301.544 162.065 303.849 164.371 303.849 167.214V198.113C303.849 200.959 301.544 203.265 298.7 203.265H288.401C285.555 203.265 283.25 200.959 283.25 198.113V167.214C283.25 164.371 285.555 162.065 288.401 162.065Z" fill="#FFB800"/>
<path d="M177.068 249.615H154.5C151.657 249.615 149.349 247.309 149.349 244.464V234.164C149.349 231.321 151.657 229.015 154.5 229.015H171.917C173.867 229.015 175.649 230.119 176.521 231.863L181.673 242.163C182.469 243.759 182.385 245.652 181.446 247.17C180.508 248.688 178.851 249.613 177.068 249.615Z" fill="white"/>
<path d="M214.333 249.615H236.901C239.744 249.615 242.05 247.309 242.05 244.464V234.164C242.05 231.321 239.744 229.015 236.901 229.015H219.482C217.532 229.015 215.75 230.119 214.878 231.863L209.729 242.163C208.932 243.759 209.017 245.652 209.955 247.17C210.891 248.688 212.548 249.613 214.333 249.615Z" fill="white"/>
<path d="M149.349 177.514C147.267 177.514 145.39 176.26 144.594 174.336C143.797 172.41 144.235 170.196 145.709 168.723L161.16 153.274C163.18 151.322 166.391 151.35 168.378 153.335C170.366 155.323 170.392 158.534 168.442 160.556L152.991 176.005C152.024 176.971 150.716 177.514 149.349 177.514Z" fill="#DDF7FF"/>
<path d="M164.8 192.965C162.718 192.965 160.839 191.708 160.042 189.784C159.245 187.861 159.686 185.647 161.16 184.174L192.059 153.274C194.08 151.322 197.291 151.35 199.278 153.335C201.265 155.323 201.294 158.534 199.342 160.556L168.442 191.456C167.475 192.42 166.165 192.965 164.8 192.965Z" fill="#DDF7FF"/>
<path d="M133.9 23.0138H72.0988C66.4173 22.9973 61.8178 18.3955 61.799 12.7139C61.7848 9.9816 62.881 7.36007 64.8378 5.45287C66.7473 3.49616 69.3665 2.39993 72.0988 2.41408H216.299C221.98 2.43058 226.582 7.03238 226.599 12.7139C226.615 15.4462 225.517 18.0678 223.562 19.975C221.653 21.9317 219.031 23.0279 216.299 23.0138V33.3136H278.1C283.782 33.3301 288.384 37.9319 288.4 43.6134C288.358 49.2855 283.77 53.8732 278.1 53.9133H133.9C128.219 53.8968 123.617 49.295 123.6 43.6134C123.643 37.9437 128.228 33.356 133.9 33.3136V23.0138Z" fill="#DDF7FF"/>
</g>
<defs>
<filter id="filter0_d" x="-2.84912" y="52.0645" width="108.699" height="108.701" filterUnits="userSpaceOnUse" color-interpolation-filters="sRGB">
<feFlood flood-opacity="0" result="BackgroundImageFix"/>
<feColorMatrix in="SourceAlpha" type="matrix" values="0 0 0 0 0 0 0 0 0 0 0 0 0 0 0 0 0 0 127 0"/>
<feOffset dy="1"/>
<feGaussianBlur stdDeviation="4"/>
<feColorMatrix type="matrix" values="0 0 0 0 0.629167 0 0 0 0 0.629167 0 0 0 0 0.629167 0 0 0 0.4 0"/>
<feBlend mode="normal" in2="BackgroundImageFix" result="effect1_dropShadow"/>
<feBlend mode="normal" in="SourceGraphic" in2="effect1_dropShadow" result="shape"/>
</filter>
<clipPath id="clip0">
<rect width="309" height="309" fill="white"/>
</clipPath>
</defs>
</svg>
