<svg width="44" height="44" viewBox="0 0 44 44" fill="none" xmlns="http://www.w3.org/2000/svg">
<g clip-path="url(#clip0)">
<path d="M22 43.999C34.1503 43.999 44 34.1493 44 21.999C44 9.84876 34.1503 -0.000976562 22 -0.000976562C9.84974 -0.000976562 0 9.84876 0 21.999C0 34.1493 9.84974 43.999 22 43.999Z" fill="#333333"/>
<path d="M7.65938 22.9849C7.58134 26.7702 10.1885 30.3825 13.7749 31.5605C17.153 32.6955 21.3065 31.8464 23.5545 28.9534C25.1957 26.9263 25.5686 24.2238 25.391 21.699C22.4979 21.6731 19.6049 21.6818 16.7162 21.6861C16.7115 22.7167 16.7162 23.7434 16.7205 24.774C18.4527 24.8219 20.1853 24.7999 21.9175 24.8348C21.4803 26.3333 20.4841 27.7279 18.9723 28.2691C16.0534 29.5554 12.329 27.8749 11.4105 24.8129C10.3018 21.8806 12.1168 18.342 15.1134 17.4891C16.9715 16.8353 18.8857 17.5714 20.4755 18.5373C21.281 17.7836 22.0348 16.9781 22.7752 16.1639C20.9689 14.6525 18.6476 13.7258 16.2613 13.9293C11.5791 13.985 7.48173 18.3075 7.65938 22.9849Z" fill="#DC4E41"/>
<path d="M31.0215 19.0861C31.0129 19.9481 31.0039 20.8144 30.9996 21.676C30.1333 21.6846 29.2717 21.689 28.4097 21.6933C28.4097 22.5553 28.4097 23.4126 28.4097 24.2745C29.2717 24.2789 30.138 24.2832 30.9996 24.2922C31.0082 25.1542 31.0082 26.0158 31.0168 26.8821C31.8745 26.8821 32.7365 26.8778 33.5981 26.8821C33.6028 26.0158 33.6067 25.1542 33.6157 24.2879C34.4773 24.2836 35.3436 24.2792 36.2056 24.2749C36.2056 23.4129 36.2056 22.5557 36.2056 21.6937C35.344 21.6894 34.4777 21.685 33.6157 21.6764C33.611 20.8144 33.6028 19.9481 33.5981 19.0865C32.7365 19.0861 31.8788 19.0861 31.0215 19.0861Z" fill="#DC4E41"/>
<path d="M7.65938 22.9844C7.48173 18.3069 11.5787 13.9844 16.2609 13.9284C18.6472 13.7248 20.9689 14.6515 22.7748 16.1629C22.034 16.9775 21.2803 17.7826 20.4751 18.5364C18.8853 17.5704 16.9711 16.8343 15.113 17.4881C12.116 18.3415 10.301 21.88 11.4101 24.8119C12.3286 27.8739 16.053 29.5544 18.9719 28.2681C20.4834 27.7269 21.4799 26.3323 21.9171 24.8338C20.1849 24.7993 18.4523 24.8209 16.7201 24.7731C16.7158 23.7424 16.7115 22.7157 16.7158 21.6851C19.6045 21.6808 22.4976 21.6722 25.3906 21.698C25.5683 24.2232 25.1957 26.9257 23.5541 28.9524C21.3061 31.8455 17.1531 32.6945 13.7745 31.5596C10.1889 30.3819 7.58134 26.7696 7.65938 22.9844Z" fill="white"/>
<path d="M31.0215 19.0861C31.8792 19.0861 32.7365 19.0861 33.5981 19.0861C33.6028 19.9481 33.611 20.8144 33.6157 21.676C34.4773 21.6846 35.3436 21.689 36.2056 21.6933C36.2056 22.5553 36.2056 23.4125 36.2056 24.2745C35.344 24.2789 34.4777 24.2832 33.6157 24.2875C33.6071 25.1538 33.6028 26.0154 33.5981 26.8817C32.7365 26.8774 31.8741 26.8817 31.0168 26.8817C31.0086 26.0154 31.0086 25.1538 30.9996 24.2918C30.138 24.2828 29.2717 24.2789 28.4097 24.2741C28.4097 23.4122 28.4097 22.5549 28.4097 21.6929C29.2717 21.6886 30.1336 21.6843 30.9996 21.6756C31.0039 20.8144 31.0125 19.9481 31.0215 19.0861Z" fill="white"/>
</g>
<defs>
<clipPath id="clip0">
<rect width="44" height="44" fill="white"/>
</clipPath>
</defs>
</svg>
