<svg width="21" height="21" viewBox="0 0 21 21" fill="none" xmlns="http://www.w3.org/2000/svg">
<path fill-rule="evenodd" clip-rule="evenodd" d="M20.486 18.0042L15.9239 13.4422C15.8996 13.4179 15.8712 13.401 15.8458 13.3784C16.7435 12.0167 17.2674 10.3867 17.2674 8.6338C17.2674 3.86546 13.402 0 8.63372 0C3.86546 0 0 3.86546 0 8.63372C0 13.4019 3.86538 17.2674 8.63363 17.2674C10.3866 17.2674 12.0165 16.7435 13.3782 15.8458C13.4008 15.8711 13.4177 15.8995 13.4419 15.9238L18.0041 20.486C18.6894 21.1712 19.8006 21.1712 20.486 20.486C21.1712 19.8006 21.1712 18.6895 20.486 18.0042ZM8.63372 14.2744C5.51836 14.2744 2.99295 11.749 2.99295 8.63372C2.99295 5.51836 5.51844 2.99295 8.63372 2.99295C11.7489 2.99295 14.2744 5.51844 14.2744 8.63372C14.2744 11.749 11.7489 14.2744 8.63372 14.2744Z" fill="#808082"/>
</svg>
