<svg width="25" height="20" viewBox="0 0 25 20" fill="none" xmlns="http://www.w3.org/2000/svg">
<g clip-path="url(#clip0)">
<path d="M24.9752 9.87261C23.2036 5.46256 18.1901 2.49988 12.5 2.49988C6.80987 2.49988 1.79634 5.46256 0.0247927 9.87261C-0.00826424 9.95522 -0.00826424 10.0447 0.0247927 10.1273C1.79634 14.5374 6.80992 17.5001 12.5 17.5001C18.1901 17.5001 23.2036 14.5374 24.9752 10.1273C25.0082 10.0447 25.0082 9.95522 24.9752 9.87261ZM12.5 15.8334C8.47922 15.8334 5.20824 13.2165 5.20824 9.99999C5.20824 6.78344 8.47927 4.16661 12.5 4.16661C16.5207 4.16661 19.7917 6.78344 19.7917 9.99999C19.7917 13.2165 16.5207 15.8334 12.5 15.8334Z" fill="#808082"/>
<path d="M12.4997 13.3332C14.8009 13.3332 16.6664 11.8408 16.6664 9.99986C16.6664 8.1589 14.8009 6.6665 12.4997 6.6665C10.1985 6.6665 8.33301 8.1589 8.33301 9.99986C8.33301 11.8408 10.1985 13.3332 12.4997 13.3332Z" fill="#808082"/>
</g>
<defs>
<clipPath id="clip0">
<rect width="25" height="20" fill="white"/>
</clipPath>
</defs>
</svg>
